{
  "asset": {
    "version": "2.0",
    "generator": "THREE.GLTFExporter"
  },
  "scenes": [
    {
      "nodes": [
        0
      ]
    }
  ],
  "scene": 0,
  "nodes": [
    {
      "children": [
        2,
        4,
        5,
        6
      ],
      "matrix": [
        0.01,
        0,
        0,
        0,
        0,
        0.01,
        0,
        0,
        0,
        0,
        0.01,
        0,
        0,
        0,
        0,
        1
      ]
    },
    {
      "matrix": [
        -1.0000000000000087,
        -1.2246467991473638e-16,
        6.961311096048234e-33,
        0,
        1.2246467991473638e-16,
        -1.0000000000000087,
        5.684341886080925e-17,
        0,
        -1.3684555315672042e-48,
        5.684341886080876e-17,
        1,
        0,
        101.43856811523526,
        -30.10630607605006,
        -20,
        1
      ],
      "name": "arrow07",
      "mesh": 0
    },
    {
      "matrix": [
        1.59367684690173,
        0,
        1.624127248303244e-8,
        0,
        0,
        1,
        0,
        0,
        -1.0191070112242094e-8,
        0,
        1,
        0,
        60.22172927287923,
        0,
        0,
        1
      ],
      "name": "shortarrow",
      "children": [
        1
      ]
    },
    {
      "matrix": [
        0.46456260115241543,
        0.39487821097955317,
        -0.7926239891046001,
        0,
        -0.6476484200955405,
        0.7619393177594593,
        0,
        0,
        0.6039313814981401,
        0.5133416742734191,
        0.6097107608496923,
        0,
        0,
        0,
        0,
        1
      ],
      "name": "Default Directional Light",
      "extensions": {
        "KHR_lights_punctual": {
          "light": 0
        }
      }
    },
    {
      "matrix": [
        1,
        0,
        0,
        0,
        0,
        1,
        -6.039613253960852e-17,
        0,
        0,
        6.039613253960852e-17,
        1,
        0,
        0,
        6.039613253960852e-14,
        1000,
        1
      ],
      "name": "Default Camera",
      "camera": 0,
      "children": [
        3
      ]
    },
    {
      "matrix": [
        0.9986208138547303,
        -1.3010426069826053e-18,
        0.052502096492577956,
        0,
        0.003257689173431076,
        0.9980731202172443,
        -0.06196316777783107,
        0,
        -0.05240093126429412,
        0.06204874454664117,
        0.9966965915978746,
        0,
        -12.711058641633997,
        34.08648607127219,
        1001.8759846273398,
        1
      ],
      "camera": 1
    },
    {
      "matrix": [
        1,
        0,
        0,
        0,
        0,
        1,
        0,
        0,
        0,
        0,
        1,
        0,
        0,
        1,
        0,
        1
      ],
      "name": "Default Ambient Light"
    }
  ],
  "bufferViews": [
    {
      "buffer": 0,
      "byteOffset": 0,
      "byteLength": 13776,
      "target": 34962,
      "byteStride": 12
    },
    {
      "buffer": 0,
      "byteOffset": 13776,
      "byteLength": 13776,
      "target": 34962,
      "byteStride": 12
    },
    {
      "buffer": 0,
      "byteOffset": 27552,
      "byteLength": 9184,
      "target": 34962,
      "byteStride": 8
    },
    {
      "buffer": 0,
      "byteOffset": 36736,
      "byteLength": 13728,
      "target": 34963
    }
  ],
  "buffers": [
    {
      "byteLength": 50464,
      "uri": "data:application/octet-stream;base64,"
    }
  ],
  "accessors": [
    {
      "bufferView": 0,
      "componentType": 5126,
      "count": 1148,
      "max": [
        202.87713623046875,
        54.33412551879883,
        40
      ],
      "min": [
        0,
        -114.54673767089844,
        0
      ],
      "type": "VEC3"
    },
    {
      "bufferView": 1,
      "componentType": 5126,
      "count": 1148,
      "max": [
        0.9999293088912964,
        1,
        1
      ],
      "min": [
        -1,
        -1,
        -1
      ],
      "type": "VEC3"
    },
    {
      "bufferView": 2,
      "componentType": 5126,
      "count": 1148,
      "max": [
        1,
        1
      ],
      "min": [
        0,
        0
      ],
      "type": "VEC2"
    },
    {
      "bufferView": 3,
      "componentType": 5125,
      "count": 3432,
      "max": [
        1147
      ],
      "min": [
        0
      ],
      "type": "SCALAR"
    }
  ],
  "meshes": [
    {
      "primitives": [
        {
          "mode": 4,
          "attributes": {
            "POSITION": 0,
            "NORMAL": 1,
            "TEXCOORD_0": 2
          },
          "extras": {
            "parameters": {
              "width": 100,
              "subdivisions": 40,
              "roundness": 1,
              "extrudeBevelSize": 0,
              "extrudeBevelSegments": 10,
              "windingRule": 0,
              "extrudeDepth": 40,
              "surfaceMaxCount": 100,
              "height": 100,
              "depth": 40,
              "shape": {
                "points": [
                  {
                    "fi": 0,
                    "id": "0",
                    "data": {
                      "roundness": 1,
                      "position": [
                        0,
                        0
                      ],
                      "areControlsDirectionsMirrored": true,
                      "controlPrevious": {
                        "position": [
                          0,
                          0
                        ]
                      },
                      "controlNext": {
                        "position": [
                          0,
                          0
                        ]
                      }
                    }
                  },
                  {
                    "fi": 1,
                    "id": "1",
                    "data": {
                      "roundness": 1,
                      "position": [
                        101.69261919702575,
                        0
                      ],
                      "areControlsDirectionsMirrored": true,
                      "controlPrevious": {
                        "position": [
                          101.69261919702575,
                          0
                        ]
                      },
                      "controlNext": {
                        "position": [
                          101.69261919702575,
                          0
                        ]
                      }
                    }
                  },
                  {
                    "fi": 2,
                    "id": "2",
                    "data": {
                      "roundness": 1,
                      "position": [
                        101.69261919702575,
                        54.87132729338502
                      ],
                      "areControlsDirectionsMirrored": true,
                      "controlPrevious": {
                        "position": [
                          101.69261919702575,
                          54.87132729338502
                        ]
                      },
                      "controlNext": {
                        "position": [
                          101.69261919702575,
                          54.87132729338502
                        ]
                      }
                    }
                  },
                  {
                    "fi": 3,
                    "id": "3",
                    "data": {
                      "roundness": 1,
                      "position": [
                        203.34460411443126,
                        -31.68651352260821
                      ],
                      "areControlsDirectionsMirrored": true,
                      "controlPrevious": {
                        "position": [
                          203.34460411443126,
                          -31.68651352260821
                        ]
                      },
                      "controlNext": {
                        "position": [
                          203.34460411443126,
                          -31.68651352260821
                        ]
                      }
                    }
                  },
                  {
                    "fi": 4,
                    "id": "4",
                    "data": {
                      "roundness": 1,
                      "position": [
                        101.69261919702575,
                        -115.07277208179103
                      ],
                      "areControlsDirectionsMirrored": true,
                      "controlPrevious": {
                        "position": [
                          101.69261919702575,
                          -115.07277208179103
                        ]
                      },
                      "controlNext": {
                        "position": [
                          101.69261919702575,
                          -115.07277208179103
                        ]
                      }
                    }
                  },
                  {
                    "fi": 5,
                    "id": "5",
                    "data": {
                      "roundness": 1,
                      "position": [
                        101.69261919702575,
                        -61.41703243174043
                      ],
                      "areControlsDirectionsMirrored": true,
                      "controlPrevious": {
                        "position": [
                          101.69261919702575,
                          -61.41703243174043
                        ]
                      },
                      "controlNext": {
                        "position": [
                          101.69261919702575,
                          -61.41703243174043
                        ]
                      }
                    }
                  },
                  {
                    "fi": 6,
                    "id": "6",
                    "data": {
                      "roundness": 1,
                      "position": [
                        0,
                        -61.41703243174042
                      ],
                      "areControlsDirectionsMirrored": true,
                      "controlPrevious": {
                        "position": [
                          0,
                          -61.41703243174042
                        ]
                      },
                      "controlNext": {
                        "position": [
                          0,
                          -61.41703243174042
                        ]
                      }
                    }
                  }
                ],
                "isClosed": true,
                "roundness": 1,
                "shapeHoles": []
              },
              "type": "VectorGeometry"
            },
            "shape": {
              "points": [
                0,
                0,
                0,
                0,
                0,
                0,
                1,
                101.69261919702575,
                0,
                101.69261919702575,
                0,
                101.69261919702575,
                0,
                1,
                101.69261919702575,
                54.87132729338502,
                101.69261919702575,
                54.87132729338502,
                101.69261919702575,
                54.87132729338502,
                1,
                203.34460411443126,
                -31.68651352260821,
                203.34460411443126,
                -31.68651352260821,
                203.34460411443126,
                -31.68651352260821,
                1,
                101.69261919702575,
                -115.07277208179103,
                101.69261919702575,
                -115.07277208179103,
                101.69261919702575,
                -115.07277208179103,
                1,
                101.69261919702575,
                -61.41703243174043,
                101.69261919702575,
                -61.41703243174043,
                101.69261919702575,
                -61.41703243174043,
                1,
                0,
                -61.41703243174042,
                0,
                -61.41703243174042,
                0,
                -61.41703243174042,
                1
              ],
              "shapeHoles": [],
              "isClosed": true,
              "roundness": 1
            },
            "type": "VectorGeometry"
          },
          "indices": 3
        }
      ]
    }
  ],
  "cameras": [
    {
      "type": "orthographic",
      "orthographic": {
        "xmag": 9.6,
        "ymag": 4.84,
        "zfar": 50000,
        "znear": 0
      },
      "name": "Camera"
    },
    {
      "type": "orthographic",
      "orthographic": {
        "xmag": 9.6,
        "ymag": 4.84,
        "zfar": 100000,
        "znear": 0
      }
    }
  ],
  "extensions": {
    "KHR_lights_punctual": {
      "lights": [
        {
          "name": "Default Directional Light",
          "color": [
            1,
            1,
            1
          ],
          "intensity": 0.75,
          "type": "directional"
        }
      ]
    }
  },
  "extensionsUsed": [
    "KHR_lights_punctual"
  ]
}